<svg width="19" height="20" viewBox="0 0 19 20" fill="none" xmlns="http://www.w3.org/2000/svg">
<path d="M9.48901 0.0615234C9.14844 0.0615234 8.80811 0.079832 8.46948 0.11633C8.1591 0.148034 7.85253 0.200027 7.55008 0.263116C7.49155 0.275361 7.43298 0.288281 7.37445 0.301794C5.59245 0.707516 3.96529 1.61863 2.68809 2.92587C2.56932 3.04761 2.45305 3.17295 2.33935 3.30187C-1.11075 7.26271 -0.696703 13.2705 3.26417 16.7206C7.05619 20.0236 12.7641 19.8038 16.291 16.219C16.41 16.0973 16.5262 15.9719 16.6397 15.843C18.1623 14.1091 19.0013 11.88 19 9.57244C19 4.31966 14.7418 0.0614838 9.48901 0.0615234ZM3.11069 3.40142C3.16078 3.34942 3.21277 3.29965 3.26382 3.24924C3.32278 3.19122 3.38143 3.13289 3.44167 3.07677C3.49461 3.02732 3.54914 2.97976 3.60336 2.93157C3.66454 2.87736 3.72541 2.82315 3.78819 2.77084C3.84335 2.72423 3.9001 2.67953 3.95653 2.63451C4.01994 2.58379 4.08334 2.53306 4.14865 2.48424C4.20635 2.44081 4.265 2.39864 4.32397 2.35743C4.3896 2.31051 4.45554 2.26232 4.52243 2.21857C4.58235 2.17799 4.6429 2.13868 4.70377 2.09968C4.77162 2.05625 4.83978 2.01345 4.90858 1.97287C4.97052 1.9359 5.03285 1.89952 5.09562 1.86381C5.16581 1.82386 5.23627 1.78487 5.30709 1.74683C5.37049 1.71302 5.4339 1.67993 5.4973 1.64759C5.56959 1.61114 5.6425 1.57595 5.71574 1.54139C5.77915 1.51127 5.84509 1.48115 5.9104 1.45262C5.9849 1.42092 6.06035 1.38921 6.13581 1.35751C6.20143 1.33056 6.26674 1.30425 6.333 1.27889C6.40972 1.24972 6.48739 1.22245 6.56507 1.19519C6.63133 1.17205 6.69759 1.1489 6.7648 1.12703C6.84374 1.10167 6.92331 1.07821 7.0032 1.05506C7.0701 1.03572 7.13636 1.01575 7.20357 0.997679C7.22925 0.991021 7.25493 0.985632 7.28061 0.978974C6.34219 1.89016 5.64579 3.02102 5.25446 4.26913C4.50198 4.07067 3.77352 3.79033 3.08216 3.43312C3.09262 3.42202 3.1015 3.41093 3.11069 3.40142ZM2.6548 3.91184C3.41635 4.32445 4.22391 4.64584 5.06075 4.86927C4.65051 6.29576 4.43517 7.77118 4.42066 9.25541H0.619454C0.688528 7.29817 1.40427 5.41905 2.6548 3.91184ZM2.6548 15.233C1.40435 13.7258 0.688607 11.8467 0.619454 9.88947H4.42066C4.43517 11.3737 4.65047 12.8491 5.06075 14.2756C4.22395 14.4991 3.41639 14.8205 2.6548 15.233ZM7.20167 18.1485C7.13763 18.1323 7.07137 18.1114 7.00542 18.092C6.92521 18.0686 6.84469 18.0451 6.76543 18.0194C6.69854 17.9979 6.6326 17.9747 6.56665 17.9516C6.48866 17.9246 6.41067 17.8971 6.33363 17.8676C6.26769 17.8425 6.2027 17.8162 6.13739 17.7896C6.06162 17.7579 5.98585 17.7262 5.91071 17.6945C5.84604 17.6659 5.78168 17.6366 5.71764 17.6063C5.64377 17.5715 5.57022 17.536 5.49572 17.4992C5.43231 17.4675 5.36891 17.4358 5.3055 17.4012C5.23385 17.3629 5.16284 17.3236 5.09182 17.283C5.02841 17.2478 4.96818 17.2116 4.90699 17.1749C4.83724 17.133 4.76877 17.0899 4.70029 17.0458C4.64005 17.0075 4.57981 16.9685 4.52053 16.9285C4.453 16.8829 4.38611 16.8353 4.31985 16.7878C4.26183 16.7462 4.20381 16.7047 4.14675 16.661C4.08112 16.6115 4.01677 16.5605 3.95273 16.5091C3.89661 16.4644 3.84081 16.42 3.78597 16.374C3.72256 16.3214 3.66137 16.2666 3.59987 16.212C3.54597 16.1642 3.49176 16.1169 3.43913 16.0681C3.37858 16.0117 3.31993 15.953 3.26096 15.895C3.20992 15.8446 3.15793 15.7948 3.10784 15.7432C3.09864 15.7333 3.08977 15.7232 3.08057 15.7137C3.7719 15.3563 4.50036 15.0758 5.25287 14.8773C5.64429 16.1254 6.34065 17.2562 7.27902 18.1675C7.25334 18.1608 7.22735 18.1554 7.20167 18.1485ZM9.17202 18.4243C7.81544 18.2315 6.62625 16.8157 5.87806 14.7248C6.95977 14.4826 8.06364 14.3527 9.17202 14.3371V18.4243ZM9.17202 13.703C7.99623 13.7185 6.82539 13.8582 5.67896 14.1196C5.28089 12.7442 5.0709 11.3212 5.05473 9.88947H9.17202V13.703ZM9.17202 9.25541H5.05473C5.07086 7.82365 5.28085 6.40066 5.67896 5.02525C6.82539 5.28668 7.99627 5.42634 9.17202 5.44183V9.25541ZM9.17202 4.80777C8.0636 4.79231 6.95977 4.66237 5.87806 4.42004C6.62625 2.32921 7.81544 0.913349 9.17202 0.720593V4.80777ZM16.3233 3.91184C17.5738 5.41909 18.2895 7.29821 18.3586 9.25541H14.5574C14.5429 7.77118 14.3276 6.29576 13.9174 4.86927C14.7542 4.64573 15.5617 4.32437 16.3233 3.91184ZM11.7739 0.996094C11.8405 1.01258 11.9067 1.0335 11.9727 1.05284C12.0529 1.0763 12.1334 1.09976 12.2127 1.12544C12.2796 1.147 12.3455 1.17014 12.4114 1.19329C12.4894 1.22024 12.5674 1.24782 12.6445 1.2773C12.7104 1.30235 12.7754 1.32866 12.8407 1.35529C12.9165 1.38699 12.9923 1.4187 13.0674 1.4504C13.1321 1.47893 13.1964 1.5083 13.2605 1.53854C13.3343 1.57341 13.4079 1.60892 13.4824 1.64569C13.5458 1.6774 13.6092 1.7091 13.6726 1.74366C13.7443 1.78202 13.8153 1.82133 13.8863 1.86191C13.9497 1.8971 14.0099 1.93324 14.0711 1.97002C14.1409 2.01186 14.2093 2.05498 14.2778 2.09905C14.3381 2.13741 14.3983 2.1764 14.4576 2.21635C14.5251 2.262 14.5917 2.30924 14.6579 2.3568C14.7163 2.39833 14.7743 2.44017 14.8317 2.48361C14.897 2.53275 14.961 2.58379 15.0254 2.63515C15.0812 2.67953 15.1373 2.72392 15.1921 2.7702C15.2555 2.82283 15.3167 2.87768 15.3782 2.93221C15.4321 2.98008 15.4863 3.02732 15.539 3.07614C15.5995 3.13257 15.6582 3.19122 15.7171 3.24924C15.7682 3.29965 15.8202 3.34942 15.8703 3.4011C15.8795 3.41093 15.8883 3.42107 15.8975 3.43058C15.2062 3.78796 14.4777 4.06841 13.7252 4.26691C13.3331 3.01868 12.6358 1.88794 11.6965 0.977072C11.7222 0.98373 11.7482 0.989119 11.7739 0.996094ZM9.80608 0.720593C11.1627 0.913349 12.3518 2.32921 13.1 4.42004C12.0183 4.66225 10.9145 4.79219 9.80608 4.80777V0.720593ZM9.80608 5.44183C10.9819 5.42638 12.1527 5.28672 13.2991 5.02525C13.6972 6.40066 13.9072 7.82365 13.9234 9.25541H9.80608V5.44183ZM9.80608 9.88947H13.9234C13.9072 11.3212 13.6973 12.7442 13.2991 14.1196C12.1527 13.8582 10.9819 13.7185 9.80608 13.703V9.88947ZM9.80608 18.4243V14.3371C10.9145 14.3526 12.0183 14.4825 13.1 14.7248C12.3518 16.8157 11.1627 18.2315 9.80608 18.4243ZM15.8674 15.7435C15.8173 15.7951 15.7656 15.8449 15.7146 15.8953C15.6556 15.9533 15.5967 16.012 15.5361 16.0684C15.4835 16.1176 15.4293 16.1635 15.3754 16.2127C15.3139 16.2672 15.2527 16.3217 15.1899 16.3744C15.1344 16.4206 15.078 16.4653 15.0216 16.5104C14.9582 16.5611 14.8948 16.6118 14.8295 16.6606C14.7718 16.7041 14.7131 16.7462 14.6541 16.7875C14.5885 16.8344 14.5226 16.8826 14.4557 16.9263C14.3958 16.9669 14.3352 17.0062 14.2743 17.0449C14.2065 17.0886 14.1381 17.1309 14.0692 17.1717C14.0058 17.2088 13.9452 17.2449 13.8828 17.2808C13.8126 17.3207 13.742 17.3597 13.671 17.3977C13.6076 17.4315 13.5442 17.4646 13.4808 17.497C13.4085 17.5334 13.3356 17.5686 13.2624 17.6032C13.199 17.6333 13.133 17.6634 13.0677 17.6919C12.9932 17.7236 12.9177 17.7554 12.8423 17.7871C12.7767 17.8137 12.7114 17.8403 12.6454 17.8654C12.5681 17.8948 12.4904 17.9224 12.4124 17.9494C12.3465 17.9725 12.2805 17.9957 12.2136 18.0172C12.1344 18.0429 12.0551 18.0664 11.9743 18.0895C11.908 18.1092 11.8414 18.1288 11.7745 18.1469C11.7489 18.1535 11.7232 18.1589 11.6975 18.1656C12.6359 17.2544 13.3323 16.1236 13.7236 14.8754C14.4761 15.0739 15.2046 15.3542 15.8959 15.7114C15.8855 15.7229 15.8766 15.734 15.8674 15.7435ZM16.3233 15.233C15.5618 14.8204 14.7542 14.499 13.9174 14.2756C14.3276 12.8491 14.5429 11.3737 14.5574 9.88947H18.3586C18.2896 11.8467 17.5738 13.7258 16.3233 15.233Z" fill="white"/>
</svg>
